<svg width="216" height="49" viewBox="0 0 216 49" fill="none" xmlns="http://www.w3.org/2000/svg">
<path d="M69.2253 39.4157C66.5923 39.4157 64.3334 38.9861 62.4487 38.1269C60.5917 37.2677 59.1366 36.0067 58.0834 34.3437C57.0579 32.6807 56.4897 30.6159 56.3789 28.1491C56.3511 27.0128 56.3373 25.7933 56.3373 24.4906C56.3373 23.1879 56.3511 21.9407 56.3789 20.7489C56.4897 18.3376 57.0718 16.3005 58.125 14.6375C59.1782 12.9468 60.6471 11.6719 62.5318 10.8127C64.4165 9.92578 66.6477 9.48232 69.2253 9.48232C71.0546 9.48232 72.7452 9.71791 74.2973 10.1891C75.8494 10.6325 77.2075 11.2977 78.3716 12.1846C79.5357 13.0438 80.4365 14.0971 81.0739 15.3443C81.7391 16.5638 82.0856 17.9496 82.1133 19.5017C82.141 19.7511 82.0579 19.959 81.8638 20.1253C81.6975 20.2916 81.4897 20.3748 81.2402 20.3748H75.6277C75.2674 20.3748 74.9902 20.3055 74.7962 20.1669C74.6022 20.0006 74.4359 19.7096 74.2973 19.2938C73.9093 17.8249 73.2718 16.8271 72.3849 16.3005C71.5257 15.7462 70.4587 15.469 69.1837 15.469C67.6593 15.469 66.4537 15.8986 65.5668 16.7578C64.6798 17.5893 64.1948 18.989 64.1117 20.9568C64.0285 23.2295 64.0285 25.5577 64.1117 27.9413C64.1948 29.9091 64.6798 31.3226 65.5668 32.1818C66.4537 33.0133 67.6593 33.4291 69.1837 33.4291C70.4587 33.4291 71.5396 33.1519 72.4265 32.5976C73.3134 32.0433 73.937 31.0455 74.2973 29.6042C74.4082 29.1885 74.5606 28.9113 74.7547 28.7727C74.9764 28.6065 75.2674 28.5233 75.6277 28.5233H81.2402C81.4897 28.5233 81.6975 28.6065 81.8638 28.7727C82.0579 28.939 82.141 29.1469 82.1133 29.3964C82.0856 30.9485 81.7391 32.3481 81.0739 33.5954C80.4365 34.8149 79.5357 35.8681 78.3716 36.755C77.2075 37.6142 75.8494 38.2794 74.2973 38.7506C72.7452 39.194 71.0546 39.4157 69.2253 39.4157ZM87.8983 39C87.5934 39 87.344 38.903 87.1499 38.709C86.9559 38.515 86.8589 38.2655 86.8589 37.9606V10.5217C86.8589 10.2168 86.9559 9.96735 87.1499 9.77334C87.344 9.57933 87.5934 9.48232 87.8983 9.48232H93.2198C93.5246 9.48232 93.7741 9.57933 93.9681 9.77334C94.1621 9.96735 94.2591 10.2168 94.2591 10.5217V19.7927C95.0075 18.9335 95.9221 18.2545 97.003 17.7556C98.1117 17.229 99.3866 16.9657 100.828 16.9657C102.435 16.9657 103.863 17.326 105.11 18.0466C106.385 18.7672 107.383 19.8343 108.103 21.2478C108.824 22.6336 109.184 24.3382 109.184 26.3614V37.9606C109.184 38.2655 109.087 38.515 108.893 38.709C108.699 38.903 108.45 39 108.145 39H102.782C102.505 39 102.255 38.903 102.034 38.709C101.839 38.515 101.742 38.2655 101.742 37.9606V26.6109C101.742 25.3082 101.424 24.3104 100.786 23.6175C100.177 22.8969 99.2619 22.5366 98.0424 22.5366C96.906 22.5366 95.9914 22.8969 95.2985 23.6175C94.6056 24.3104 94.2591 25.3082 94.2591 26.6109V37.9606C94.2591 38.2655 94.1621 38.515 93.9681 38.709C93.7741 38.903 93.5246 39 93.2198 39H87.8983ZM121.215 39.4157C119.719 39.4157 118.375 39.1386 117.183 38.5843C116.019 38.0022 115.09 37.2262 114.397 36.2561C113.704 35.286 113.358 34.1913 113.358 32.9717C113.358 31.0039 114.162 29.4518 115.769 28.3154C117.377 27.1514 119.511 26.3614 122.172 25.9457L127.368 25.1558V24.5738C127.368 23.576 127.161 22.8138 126.745 22.2872C126.329 21.7606 125.567 21.4973 124.458 21.4973C123.682 21.4973 123.045 21.6497 122.546 21.9546C122.075 22.2595 121.7 22.6752 121.423 23.2018C121.174 23.5621 120.827 23.7423 120.384 23.7423H115.728C115.423 23.7423 115.187 23.6591 115.021 23.4928C114.855 23.2988 114.785 23.0771 114.813 22.8276C114.813 22.3287 114.993 21.7606 115.353 21.1231C115.742 20.4579 116.324 19.8066 117.1 19.1691C117.876 18.5316 118.873 18.005 120.093 17.5893C121.312 17.1735 122.781 16.9657 124.5 16.9657C126.301 16.9657 127.84 17.1735 129.115 17.5893C130.389 18.005 131.415 18.5871 132.191 19.3354C132.995 20.0837 133.591 20.9707 133.979 21.9962C134.367 22.9939 134.561 24.1026 134.561 25.3221V37.9606C134.561 38.2655 134.45 38.515 134.228 38.709C134.034 38.903 133.799 39 133.521 39H128.699C128.394 39 128.144 38.903 127.95 38.709C127.756 38.515 127.659 38.2655 127.659 37.9606V36.5055C127.299 37.0322 126.814 37.5172 126.204 37.9606C125.595 38.4041 124.874 38.7506 124.042 39C123.239 39.2772 122.296 39.4157 121.215 39.4157ZM123.169 34.6763C123.973 34.6763 124.694 34.51 125.331 34.1774C125.996 33.8171 126.509 33.2766 126.87 32.556C127.258 31.8077 127.452 30.8792 127.452 29.7705V29.1885L123.918 29.8121C122.615 30.0338 121.659 30.3803 121.049 30.8515C120.467 31.2949 120.176 31.8215 120.176 32.4313C120.176 32.9025 120.315 33.3043 120.592 33.6369C120.869 33.9695 121.229 34.2328 121.673 34.4268C122.116 34.5931 122.615 34.6763 123.169 34.6763ZM150.98 39C149.206 39 147.668 38.7228 146.365 38.1685C145.09 37.5865 144.106 36.6996 143.413 35.5078C142.721 34.2883 142.374 32.7223 142.374 30.8099V22.8276H139.131C138.826 22.8276 138.563 22.7306 138.341 22.5366C138.147 22.3426 138.05 22.0932 138.05 21.7883V18.4208C138.05 18.1159 138.147 17.8664 138.341 17.6724C138.563 17.4784 138.826 17.3814 139.131 17.3814H142.374V10.5217C142.374 10.2168 142.471 9.96735 142.665 9.77334C142.887 9.57933 143.136 9.48232 143.413 9.48232H148.236C148.541 9.48232 148.79 9.57933 148.984 9.77334C149.178 9.96735 149.275 10.2168 149.275 10.5217V17.3814H154.472C154.777 17.3814 155.027 17.4784 155.221 17.6724C155.415 17.8664 155.512 18.1159 155.512 18.4208V21.7883C155.512 22.0932 155.415 22.3426 155.221 22.5366C155.027 22.7306 154.777 22.8276 154.472 22.8276H149.275V30.2278C149.275 31.1702 149.456 31.9185 149.816 32.4729C150.176 33.0272 150.786 33.3043 151.645 33.3043H154.846C155.151 33.3043 155.401 33.4013 155.595 33.5954C155.789 33.7894 155.886 34.0388 155.886 34.3437V37.9606C155.886 38.2655 155.789 38.515 155.595 38.709C155.401 38.903 155.151 39 154.846 39H150.98ZM161.199 39C160.894 39 160.644 38.903 160.45 38.709C160.256 38.515 160.159 38.2655 160.159 37.9606V18.4208C160.159 18.1159 160.256 17.8664 160.45 17.6724C160.644 17.4784 160.894 17.3814 161.199 17.3814H166.105C166.382 17.3814 166.617 17.4784 166.811 17.6724C167.033 17.8664 167.144 18.1159 167.144 18.4208V37.9606C167.144 38.2655 167.033 38.515 166.811 38.709C166.617 38.903 166.382 39 166.105 39H161.199ZM161.157 14.2634C160.852 14.2634 160.603 14.1663 160.409 13.9723C160.215 13.7783 160.118 13.5289 160.118 13.224V9.52389C160.118 9.21902 160.215 8.96957 160.409 8.77556C160.603 8.55383 160.852 8.44297 161.157 8.44297H166.105C166.409 8.44297 166.659 8.55383 166.853 8.77556C167.075 8.96957 167.185 9.21902 167.185 9.52389V13.224C167.185 13.5289 167.075 13.7783 166.853 13.9723C166.659 14.1663 166.409 14.2634 166.105 14.2634H161.157ZM176.338 39C176.061 39 175.812 38.903 175.59 38.709C175.396 38.515 175.299 38.2655 175.299 37.9606V22.8276H172.139C171.834 22.8276 171.585 22.7306 171.391 22.5366C171.197 22.3426 171.1 22.0932 171.1 21.7883V18.4208C171.1 18.1159 171.197 17.8664 171.391 17.6724C171.585 17.4784 171.834 17.3814 172.139 17.3814H175.299V16.051C175.299 14.1663 175.659 12.6558 176.38 11.5195C177.128 10.3554 178.181 9.52389 179.539 9.025C180.898 8.4984 182.519 8.23509 184.404 8.23509H187.646C187.924 8.23509 188.159 8.3321 188.353 8.52611C188.575 8.72013 188.686 8.96957 188.686 9.27445V12.642C188.686 12.9468 188.575 13.1963 188.353 13.3903C188.159 13.5843 187.924 13.6813 187.646 13.6813H184.736C183.794 13.6813 183.129 13.903 182.741 14.3465C182.38 14.79 182.2 15.4274 182.2 16.2589V17.3814H187.231C187.508 17.3814 187.743 17.4784 187.937 17.6724C188.159 17.8664 188.27 18.1159 188.27 18.4208V21.7883C188.27 22.0932 188.159 22.3426 187.937 22.5366C187.743 22.7306 187.508 22.8276 187.231 22.8276H182.2V37.9606C182.2 38.2655 182.103 38.515 181.909 38.709C181.715 38.903 181.466 39 181.161 39H176.338ZM196.102 46.8991C195.852 46.8991 195.645 46.8159 195.478 46.6497C195.312 46.4834 195.229 46.2755 195.229 46.026C195.229 45.9706 195.229 45.8875 195.229 45.7766C195.257 45.6934 195.298 45.5964 195.354 45.4856L198.596 37.6696L190.614 18.7949C190.531 18.6009 190.489 18.4346 190.489 18.296C190.545 18.0466 190.656 17.8387 190.822 17.6724C190.988 17.4784 191.196 17.3814 191.446 17.3814H196.185C196.545 17.3814 196.809 17.4784 196.975 17.6724C197.169 17.8387 197.294 18.0327 197.349 18.2545L202.13 30.3526L206.994 18.2545C207.105 18.0327 207.244 17.8387 207.41 17.6724C207.604 17.4784 207.881 17.3814 208.242 17.3814H212.898C213.147 17.3814 213.355 17.4784 213.522 17.6724C213.716 17.8387 213.813 18.0327 213.813 18.2545C213.813 18.3931 213.771 18.5732 213.688 18.7949L201.922 46.026C201.839 46.2478 201.701 46.4418 201.507 46.6081C201.313 46.8021 201.035 46.8991 200.675 46.8991H196.102Z" fill="white"/>
<rect width="47.3833" height="47.3833" rx="13.6159" fill="#3559E0"/>
<circle cx="23.6917" cy="23.6919" r="17.7007" fill="white"/>
<path d="M9.25891 39.4861V33.938C9.25891 33.5038 9.51672 33.1111 9.91508 32.9385L24.0756 26.8023C24.7949 26.4906 25.598 27.0179 25.598 27.8017V39.4861C25.598 40.0877 25.1103 40.5754 24.5087 40.5754H10.3482C9.74659 40.5754 9.25891 40.0877 9.25891 39.4861Z" fill="white"/>
<circle cx="2.72318" cy="2.72318" r="2.72318" transform="matrix(-1 0 0 1 35.4014 21.2412)" fill="#3559E0"/>
<circle cx="2.72318" cy="2.72318" r="2.72318" transform="matrix(-1 0 0 1 26.6873 21.2412)" fill="#3559E0"/>
<circle cx="2.72318" cy="2.72318" r="2.72318" transform="matrix(-1 0 0 1 17.973 21.2412)" fill="#3559E0"/>
</svg>
