<svg width="160" height="36" viewBox="0 0 160 36" fill="none" xmlns="http://www.w3.org/2000/svg">
<path d="M51.1034 29.3069C49.1596 29.3069 47.4921 28.9898 46.1008 28.3555C44.7299 27.7212 43.6557 26.7903 42.8782 25.5626C42.1212 24.335 41.7017 22.8107 41.6199 20.9897C41.5994 20.1508 41.5892 19.2505 41.5892 18.2889C41.5892 17.3272 41.5994 16.4065 41.6199 15.5267C41.7017 13.7466 42.1314 12.2428 42.9089 11.0152C43.6864 9.76706 44.7708 8.82588 46.1621 8.1916C47.5535 7.53686 49.2005 7.20949 51.1034 7.20949C52.4538 7.20949 53.7019 7.38341 54.8476 7.73124C55.9934 8.05861 56.996 8.54966 57.8554 9.2044C58.7147 9.83868 59.3797 10.6162 59.8503 11.5369C60.3413 12.4372 60.5971 13.4602 60.6175 14.606C60.638 14.7901 60.5766 14.9436 60.4334 15.0664C60.3106 15.1891 60.1572 15.2505 59.973 15.2505H55.8298C55.5638 15.2505 55.3592 15.1993 55.2159 15.097C55.0727 14.9743 54.95 14.7594 54.8476 14.4525C54.5612 13.3681 54.0906 12.6315 53.4359 12.2428C52.8016 11.8336 52.0139 11.629 51.0727 11.629C49.9473 11.629 49.0573 11.9461 48.4026 12.5804C47.7478 13.1942 47.3898 14.2275 47.3284 15.6802C47.267 17.3579 47.267 19.0766 47.3284 20.8362C47.3898 22.2889 47.7478 23.3324 48.4026 23.9667C49.0573 24.5805 49.9473 24.8874 51.0727 24.8874C52.0139 24.8874 52.8118 24.6828 53.4666 24.2736C54.1213 23.8644 54.5817 23.1278 54.8476 22.0639C54.9295 21.757 55.042 21.5524 55.1852 21.45C55.3489 21.3273 55.5638 21.2659 55.8298 21.2659H59.973C60.1572 21.2659 60.3106 21.3273 60.4334 21.45C60.5766 21.5728 60.638 21.7263 60.6175 21.9104C60.5971 23.0562 60.3413 24.0895 59.8503 25.0102C59.3797 25.9105 58.7147 26.688 57.8554 27.3427C56.996 27.977 55.9934 28.468 54.8476 28.8159C53.7019 29.1432 52.4538 29.3069 51.1034 29.3069ZM64.8881 29C64.663 29 64.4789 28.9284 64.3357 28.7852C64.1925 28.6419 64.1208 28.4578 64.1208 28.2327V7.97676C64.1208 7.7517 64.1925 7.56755 64.3357 7.42433C64.4789 7.28111 64.663 7.20949 64.8881 7.20949H68.8165C69.0416 7.20949 69.2258 7.28111 69.369 7.42433C69.5122 7.56755 69.5838 7.7517 69.5838 7.97676V14.8208C70.1362 14.1865 70.8114 13.6853 71.6094 13.317C72.4278 12.9282 73.369 12.7338 74.433 12.7338C75.6197 12.7338 76.6734 12.9998 77.5941 13.5318C78.5353 14.0638 79.2719 14.8515 79.8039 15.895C80.3358 16.918 80.6018 18.1764 80.6018 19.67V28.2327C80.6018 28.4578 80.5302 28.6419 80.387 28.7852C80.2438 28.9284 80.0596 29 79.8346 29H75.8754C75.6708 29 75.4867 28.9284 75.323 28.7852C75.1798 28.6419 75.1082 28.4578 75.1082 28.2327V19.8541C75.1082 18.8925 74.8729 18.1559 74.4023 17.6444C73.9521 17.1124 73.2769 16.8464 72.3767 16.8464C71.5378 16.8464 70.8626 17.1124 70.3511 17.6444C69.8396 18.1559 69.5838 18.8925 69.5838 19.8541V28.2327C69.5838 28.4578 69.5122 28.6419 69.369 28.7852C69.2258 28.9284 69.0416 29 68.8165 29H64.8881ZM89.4835 29.3069C88.3786 29.3069 87.3863 29.1023 86.5065 28.6931C85.6471 28.2634 84.9617 27.6905 84.4502 26.9744C83.9387 26.2583 83.6829 25.4501 83.6829 24.5498C83.6829 23.0971 84.2763 21.9513 85.463 21.1125C86.6497 20.2531 88.2251 19.67 90.1894 19.3631L94.0257 18.7799V18.3503C94.0257 17.6137 93.8723 17.051 93.5654 16.6623C93.2584 16.2735 92.6958 16.0791 91.8774 16.0791C91.3045 16.0791 90.8339 16.1917 90.4656 16.4167C90.1177 16.6418 89.8415 16.9487 89.6369 17.3375C89.4528 17.6035 89.197 17.7365 88.8697 17.7365H85.4323C85.2072 17.7365 85.0333 17.6751 84.9105 17.5523C84.7878 17.4091 84.7366 17.2454 84.7571 17.0613C84.7571 16.693 84.8901 16.2735 85.1561 15.8029C85.4425 15.3119 85.8722 14.8311 86.4451 14.3605C87.018 13.8899 87.7546 13.5011 88.6548 13.1942C89.5551 12.8873 90.6395 12.7338 91.908 12.7338C93.238 12.7338 94.3735 12.8873 95.3147 13.1942C96.2559 13.5011 97.013 13.9308 97.5859 14.4832C98.1792 15.0357 98.6191 15.6904 98.9056 16.4474C99.192 17.184 99.3352 18.0024 99.3352 18.9027V28.2327C99.3352 28.4578 99.2534 28.6419 99.0897 28.7852C98.9465 28.9284 98.7726 29 98.568 29H95.0078C94.7828 29 94.5986 28.9284 94.4554 28.7852C94.3122 28.6419 94.2406 28.4578 94.2406 28.2327V27.1585C93.9746 27.5473 93.6165 27.9054 93.1664 28.2327C92.7162 28.5601 92.1843 28.8159 91.5704 29C90.9771 29.2046 90.2814 29.3069 89.4835 29.3069ZM90.9259 25.8082C91.5193 25.8082 92.0513 25.6854 92.5219 25.4399C93.0129 25.1739 93.3914 24.7749 93.6574 24.2429C93.9439 23.6905 94.0871 23.0051 94.0871 22.1866V21.757L91.4784 22.2173C90.5167 22.381 89.8108 22.6368 89.3607 22.9846C88.931 23.312 88.7162 23.7007 88.7162 24.1508C88.7162 24.4987 88.8185 24.7954 89.0231 25.0409C89.2277 25.2864 89.4937 25.4808 89.8211 25.624C90.1484 25.7468 90.5167 25.8082 90.9259 25.8082ZM111.456 29C110.147 29 109.011 28.7954 108.05 28.3862C107.108 27.9565 106.382 27.3018 105.87 26.422C105.359 25.5217 105.103 24.3657 105.103 22.9539V17.0613H102.709C102.484 17.0613 102.29 16.9896 102.126 16.8464C101.983 16.7032 101.911 16.5191 101.911 16.294V13.808C101.911 13.583 101.983 13.3988 102.126 13.2556C102.29 13.1124 102.484 13.0408 102.709 13.0408H105.103V7.97676C105.103 7.7517 105.175 7.56755 105.318 7.42433C105.482 7.28111 105.666 7.20949 105.87 7.20949H109.431C109.656 7.20949 109.84 7.28111 109.983 7.42433C110.126 7.56755 110.198 7.7517 110.198 7.97676V13.0408H114.034C114.259 13.0408 114.443 13.1124 114.587 13.2556C114.73 13.3988 114.802 13.583 114.802 13.808V16.294C114.802 16.5191 114.73 16.7032 114.587 16.8464C114.443 16.9896 114.259 17.0613 114.034 17.0613H110.198V22.5242C110.198 23.2199 110.331 23.7723 110.597 24.1815C110.863 24.5907 111.313 24.7954 111.947 24.7954H114.31C114.536 24.7954 114.72 24.867 114.863 25.0102C115.006 25.1534 115.078 25.3376 115.078 25.5626V28.2327C115.078 28.4578 115.006 28.6419 114.863 28.7852C114.72 28.9284 114.536 29 114.31 29H111.456ZM119 29C118.775 29 118.591 28.9284 118.447 28.7852C118.304 28.6419 118.233 28.4578 118.233 28.2327V13.808C118.233 13.583 118.304 13.3988 118.447 13.2556C118.591 13.1124 118.775 13.0408 119 13.0408H122.621C122.826 13.0408 123 13.1124 123.143 13.2556C123.307 13.3988 123.389 13.583 123.389 13.808V28.2327C123.389 28.4578 123.307 28.6419 123.143 28.7852C123 28.9284 122.826 29 122.621 29H119ZM118.969 10.7389C118.744 10.7389 118.56 10.6673 118.417 10.5241C118.274 10.3809 118.202 10.1967 118.202 9.97167V7.24018C118.202 7.01512 118.274 6.83097 118.417 6.68775C118.56 6.52406 118.744 6.44222 118.969 6.44222H122.621C122.847 6.44222 123.031 6.52406 123.174 6.68775C123.338 6.83097 123.419 7.01512 123.419 7.24018V9.97167C123.419 10.1967 123.338 10.3809 123.174 10.5241C123.031 10.6673 122.847 10.7389 122.621 10.7389H118.969ZM130.176 29C129.972 29 129.787 28.9284 129.624 28.7852C129.481 28.6419 129.409 28.4578 129.409 28.2327V17.0613H127.076C126.851 17.0613 126.667 16.9896 126.524 16.8464C126.381 16.7032 126.309 16.5191 126.309 16.294V13.808C126.309 13.583 126.381 13.3988 126.524 13.2556C126.667 13.1124 126.851 13.0408 127.076 13.0408H129.409V12.0586C129.409 10.6673 129.675 9.55223 130.207 8.71335C130.759 7.854 131.537 7.24018 132.539 6.87189C133.542 6.48314 134.739 6.28877 136.13 6.28877H138.524C138.729 6.28877 138.903 6.36038 139.046 6.5036C139.21 6.64683 139.291 6.83097 139.291 7.05604V9.542C139.291 9.76706 139.21 9.95121 139.046 10.0944C138.903 10.2377 138.729 10.3093 138.524 10.3093H136.376C135.68 10.3093 135.189 10.473 134.903 10.8003C134.637 11.1277 134.504 11.5983 134.504 12.2121V13.0408H138.217C138.422 13.0408 138.596 13.1124 138.739 13.2556C138.903 13.3988 138.984 13.583 138.984 13.808V16.294C138.984 16.5191 138.903 16.7032 138.739 16.8464C138.596 16.9896 138.422 17.0613 138.217 17.0613H134.504V28.2327C134.504 28.4578 134.432 28.6419 134.289 28.7852C134.146 28.9284 133.961 29 133.736 29H130.176ZM144.766 34.8313C144.582 34.8313 144.428 34.7699 144.306 34.6471C144.183 34.5244 144.122 34.3709 144.122 34.1868C144.122 34.1458 144.122 34.0845 144.122 34.0026C144.142 33.9412 144.173 33.8696 144.214 33.7878L146.608 28.0179L140.715 14.0842C140.654 13.941 140.623 13.8183 140.623 13.716C140.664 13.5318 140.746 13.3784 140.868 13.2556C140.991 13.1124 141.145 13.0408 141.329 13.0408H144.827C145.093 13.0408 145.288 13.1124 145.411 13.2556C145.554 13.3784 145.646 13.5216 145.687 13.6853L149.216 22.6163L152.807 13.6853C152.889 13.5216 152.991 13.3784 153.114 13.2556C153.257 13.1124 153.462 13.0408 153.728 13.0408H157.165C157.349 13.0408 157.503 13.1124 157.626 13.2556C157.769 13.3784 157.84 13.5216 157.84 13.6853C157.84 13.7876 157.81 13.9206 157.748 14.0842L149.063 34.1868C149.001 34.3504 148.899 34.4937 148.756 34.6164C148.613 34.7597 148.408 34.8313 148.142 34.8313H144.766Z" fill="#3559E0"/>
<rect width="34.9792" height="34.9792" rx="10.0515" fill="#3559E0"/>
<circle cx="17.4896" cy="17.4898" r="13.067" fill="white"/>
<path d="M6.83496 29.1493V25.0535C6.83496 24.733 7.02528 24.4431 7.31936 24.3157L17.7729 19.7858C18.3039 19.5557 18.8968 19.945 18.8968 20.5237V29.1493C18.8968 29.5934 18.5367 29.9534 18.0926 29.9534H7.63908C7.19498 29.9534 6.83496 29.5934 6.83496 29.1493Z" fill="white"/>
<circle cx="2.0103" cy="2.0103" r="2.0103" transform="matrix(-1 0 0 1 26.134 15.6807)" fill="#3559E0"/>
<circle cx="2.0103" cy="2.0103" r="2.0103" transform="matrix(-1 0 0 1 19.7009 15.6807)" fill="#3559E0"/>
<circle cx="2.0103" cy="2.0103" r="2.0103" transform="matrix(-1 0 0 1 13.2678 15.6807)" fill="#3559E0"/>
</svg>
