<svg width="144" height="144" viewBox="0 0 144 144" fill="none" xmlns="http://www.w3.org/2000/svg">
<rect width="144" height="144" fill="white"/>
<rect x="7" y="7" width="130.002" height="130.002" rx="37.3569" fill="#3559E0"/>
<circle cx="72.001" cy="72.0005" r="48.5639" fill="white"/>
<path d="M32.4026 115.334V100.112C32.4026 98.9208 33.1099 97.8434 34.2029 97.3698L73.0534 80.5346C75.0267 79.6794 77.2302 81.126 77.2302 83.2767V115.334C77.2302 116.984 75.8922 118.322 74.2416 118.322H35.3911C33.7406 118.322 32.4026 116.984 32.4026 115.334Z" fill="white"/>
<circle cx="7.47126" cy="7.47126" r="7.47126" transform="matrix(-1 0 0 1 104.128 65.2764)" fill="#3559E0"/>
<circle cx="7.47126" cy="7.47126" r="7.47126" transform="matrix(-1 0 0 1 80.2195 65.2764)" fill="#3559E0"/>
<circle cx="7.47126" cy="7.47126" r="7.47126" transform="matrix(-1 0 0 1 56.311 65.2764)" fill="#3559E0"/>
</svg>
